<mxfile host="app.diagrams.net" agent="Mozilla/5.0 (X11; Linux x86_64) AppleWebKit/537.36 (KHTML, like Gecko) Chrome/131.0.0.0 Safari/537.36" version="25.0.3" pages="2">
  <diagram name="Page-1" id="KXrXHHp0QyWAHXYhc14G">
    <mxGraphModel dx="1404" dy="1879" grid="1" gridSize="10" guides="1" tooltips="1" connect="1" arrows="1" fold="1" page="1" pageScale="1" pageWidth="827" pageHeight="1169" math="0" shadow="0">
      <root>
        <mxCell id="0" />
        <mxCell id="1" parent="0" />
        <mxCell id="mqZAyCv1sCGLmxm8XYX8-1" value="Администратор стадиона" style="rounded=0;whiteSpace=wrap;html=1;" vertex="1" parent="1">
          <mxGeometry x="130" y="-30" width="120" height="60" as="geometry" />
        </mxCell>
        <mxCell id="mqZAyCv1sCGLmxm8XYX8-2" value="Капитан команды" style="rounded=0;whiteSpace=wrap;html=1;" vertex="1" parent="1">
          <mxGeometry x="510" y="240" width="120" height="60" as="geometry" />
        </mxCell>
        <mxCell id="mqZAyCv1sCGLmxm8XYX8-3" value="Игрок" style="rounded=0;whiteSpace=wrap;html=1;" vertex="1" parent="1">
          <mxGeometry x="510" y="340" width="120" height="60" as="geometry" />
        </mxCell>
        <mxCell id="mqZAyCv1sCGLmxm8XYX8-4" value="Зритель" style="rounded=0;whiteSpace=wrap;html=1;" vertex="1" parent="1">
          <mxGeometry x="1140" y="50" width="120" height="60" as="geometry" />
        </mxCell>
        <mxCell id="mqZAyCv1sCGLmxm8XYX8-5" value="Добавляет" style="rhombus;whiteSpace=wrap;html=1;" vertex="1" parent="1">
          <mxGeometry x="284" y="-40" width="130" height="80" as="geometry" />
        </mxCell>
        <mxCell id="mqZAyCv1sCGLmxm8XYX8-6" value="Матч" style="rounded=0;whiteSpace=wrap;html=1;" vertex="1" parent="1">
          <mxGeometry x="830" y="50" width="120" height="60" as="geometry" />
        </mxCell>
        <mxCell id="mqZAyCv1sCGLmxm8XYX8-7" value="Стадион" style="rounded=0;whiteSpace=wrap;html=1;" vertex="1" parent="1">
          <mxGeometry x="490" y="50" width="120" height="60" as="geometry" />
        </mxCell>
        <mxCell id="mqZAyCv1sCGLmxm8XYX8-9" value="Команда" style="rounded=0;whiteSpace=wrap;html=1;" vertex="1" parent="1">
          <mxGeometry x="310" y="290" width="120" height="60" as="geometry" />
        </mxCell>
        <mxCell id="mqZAyCv1sCGLmxm8XYX8-10" value="" style="edgeStyle=entityRelationEdgeStyle;fontSize=12;html=1;endArrow=ERmandOne;startArrow=ERmandOne;rounded=0;" edge="1" parent="1" source="mqZAyCv1sCGLmxm8XYX8-2" target="mqZAyCv1sCGLmxm8XYX8-9">
          <mxGeometry width="100" height="100" relative="1" as="geometry">
            <mxPoint x="370" y="450" as="sourcePoint" />
            <mxPoint x="470" y="350" as="targetPoint" />
          </mxGeometry>
        </mxCell>
        <mxCell id="mqZAyCv1sCGLmxm8XYX8-11" value="" style="edgeStyle=entityRelationEdgeStyle;fontSize=12;html=1;endArrow=ERoneToMany;startArrow=ERmandOne;rounded=0;" edge="1" parent="1" source="mqZAyCv1sCGLmxm8XYX8-9" target="mqZAyCv1sCGLmxm8XYX8-3">
          <mxGeometry width="100" height="100" relative="1" as="geometry">
            <mxPoint x="150" y="460" as="sourcePoint" />
            <mxPoint x="250" y="360" as="targetPoint" />
          </mxGeometry>
        </mxCell>
        <mxCell id="mqZAyCv1sCGLmxm8XYX8-12" value="Арендует" style="rhombus;whiteSpace=wrap;html=1;" vertex="1" parent="1">
          <mxGeometry x="120" y="40" width="130" height="80" as="geometry" />
        </mxCell>
        <mxCell id="mqZAyCv1sCGLmxm8XYX8-13" value="" style="edgeStyle=entityRelationEdgeStyle;fontSize=12;html=1;endArrow=ERzeroToMany;startArrow=none;rounded=0;startFill=0;" edge="1" parent="1" source="mqZAyCv1sCGLmxm8XYX8-12" target="mqZAyCv1sCGLmxm8XYX8-9">
          <mxGeometry width="100" height="100" relative="1" as="geometry">
            <mxPoint x="40" y="270" as="sourcePoint" />
            <mxPoint x="80" y="130" as="targetPoint" />
          </mxGeometry>
        </mxCell>
        <mxCell id="mqZAyCv1sCGLmxm8XYX8-14" value="" style="edgeStyle=entityRelationEdgeStyle;fontSize=12;html=1;endArrow=ERmandOne;endFill=0;rounded=0;" edge="1" parent="1" source="mqZAyCv1sCGLmxm8XYX8-12" target="mqZAyCv1sCGLmxm8XYX8-7">
          <mxGeometry width="100" height="100" relative="1" as="geometry">
            <mxPoint x="440" y="340" as="sourcePoint" />
            <mxPoint x="540" y="240" as="targetPoint" />
          </mxGeometry>
        </mxCell>
        <mxCell id="mqZAyCv1sCGLmxm8XYX8-16" value="" style="edgeStyle=entityRelationEdgeStyle;fontSize=12;html=1;endArrow=ERmandOne;rounded=0;fontStyle=1" edge="1" parent="1" source="mqZAyCv1sCGLmxm8XYX8-5" target="mqZAyCv1sCGLmxm8XYX8-7">
          <mxGeometry width="100" height="100" relative="1" as="geometry">
            <mxPoint x="480" y="20" as="sourcePoint" />
            <mxPoint x="580" y="-80" as="targetPoint" />
          </mxGeometry>
        </mxCell>
        <mxCell id="mqZAyCv1sCGLmxm8XYX8-17" value="" style="edgeStyle=entityRelationEdgeStyle;fontSize=12;html=1;endArrow=ERmandOne;rounded=0;" edge="1" parent="1" source="mqZAyCv1sCGLmxm8XYX8-5" target="mqZAyCv1sCGLmxm8XYX8-1">
          <mxGeometry width="100" height="100" relative="1" as="geometry">
            <mxPoint x="424" y="10" as="sourcePoint" />
            <mxPoint x="534" y="120" as="targetPoint" />
          </mxGeometry>
        </mxCell>
        <mxCell id="mqZAyCv1sCGLmxm8XYX8-18" value="" style="edgeStyle=entityRelationEdgeStyle;fontSize=12;html=1;endArrow=ERmany;rounded=0;" edge="1" parent="1" source="mqZAyCv1sCGLmxm8XYX8-26" target="mqZAyCv1sCGLmxm8XYX8-4">
          <mxGeometry width="100" height="100" relative="1" as="geometry">
            <mxPoint x="440" y="390" as="sourcePoint" />
            <mxPoint x="540" y="290" as="targetPoint" />
          </mxGeometry>
        </mxCell>
        <mxCell id="mqZAyCv1sCGLmxm8XYX8-19" value="Происходит на" style="rhombus;whiteSpace=wrap;html=1;" vertex="1" parent="1">
          <mxGeometry x="650" y="40" width="130" height="80" as="geometry" />
        </mxCell>
        <mxCell id="mqZAyCv1sCGLmxm8XYX8-20" value="" style="edgeStyle=entityRelationEdgeStyle;fontSize=12;html=1;endArrow=ERmandOne;rounded=0;" edge="1" parent="1" source="mqZAyCv1sCGLmxm8XYX8-19" target="mqZAyCv1sCGLmxm8XYX8-7">
          <mxGeometry width="100" height="100" relative="1" as="geometry">
            <mxPoint x="250" y="430" as="sourcePoint" />
            <mxPoint x="350" y="330" as="targetPoint" />
          </mxGeometry>
        </mxCell>
        <mxCell id="mqZAyCv1sCGLmxm8XYX8-21" value="" style="edgeStyle=entityRelationEdgeStyle;fontSize=12;html=1;endArrow=ERmandOne;rounded=0;" edge="1" parent="1" source="mqZAyCv1sCGLmxm8XYX8-19" target="mqZAyCv1sCGLmxm8XYX8-6">
          <mxGeometry width="100" height="100" relative="1" as="geometry">
            <mxPoint x="660" y="250" as="sourcePoint" />
            <mxPoint x="580" y="180" as="targetPoint" />
          </mxGeometry>
        </mxCell>
        <mxCell id="mqZAyCv1sCGLmxm8XYX8-22" value="Общаются&amp;nbsp;&lt;div&gt;через&amp;nbsp;&lt;span style=&quot;background-color: initial;&quot;&gt;чат&lt;/span&gt;&lt;/div&gt;" style="rhombus;whiteSpace=wrap;html=1;" vertex="1" parent="1">
          <mxGeometry x="650" y="280" width="130" height="80" as="geometry" />
        </mxCell>
        <mxCell id="mqZAyCv1sCGLmxm8XYX8-23" value="" style="edgeStyle=entityRelationEdgeStyle;fontSize=12;html=1;endArrow=ERmandOne;rounded=0;exitX=0.5;exitY=0;exitDx=0;exitDy=0;" edge="1" parent="1" source="mqZAyCv1sCGLmxm8XYX8-22" target="mqZAyCv1sCGLmxm8XYX8-2">
          <mxGeometry width="100" height="100" relative="1" as="geometry">
            <mxPoint x="474" y="420" as="sourcePoint" />
            <mxPoint x="574" y="320" as="targetPoint" />
            <Array as="points">
              <mxPoint x="694" y="390" />
              <mxPoint x="664" y="320" />
              <mxPoint x="704" y="340" />
              <mxPoint x="454" y="290" />
              <mxPoint x="784" y="300" />
            </Array>
          </mxGeometry>
        </mxCell>
        <mxCell id="mqZAyCv1sCGLmxm8XYX8-24" value="" style="edgeStyle=entityRelationEdgeStyle;fontSize=12;html=1;endArrow=ERoneToMany;rounded=0;exitX=0.5;exitY=1;exitDx=0;exitDy=0;" edge="1" parent="1" source="mqZAyCv1sCGLmxm8XYX8-22" target="mqZAyCv1sCGLmxm8XYX8-3">
          <mxGeometry width="100" height="100" relative="1" as="geometry">
            <mxPoint x="714" y="420" as="sourcePoint" />
            <mxPoint x="814" y="320" as="targetPoint" />
          </mxGeometry>
        </mxCell>
        <mxCell id="mqZAyCv1sCGLmxm8XYX8-26" value="Бронирует&amp;nbsp;&lt;div&gt;место на&lt;/div&gt;" style="rhombus;whiteSpace=wrap;html=1;" vertex="1" parent="1">
          <mxGeometry x="980" y="40" width="130" height="80" as="geometry" />
        </mxCell>
        <mxCell id="mqZAyCv1sCGLmxm8XYX8-27" value="" style="edgeStyle=entityRelationEdgeStyle;fontSize=12;html=1;endArrow=ERmandOne;rounded=0;" edge="1" parent="1" source="mqZAyCv1sCGLmxm8XYX8-26" target="mqZAyCv1sCGLmxm8XYX8-6">
          <mxGeometry width="100" height="100" relative="1" as="geometry">
            <mxPoint x="790" y="90" as="sourcePoint" />
            <mxPoint x="840" y="90" as="targetPoint" />
          </mxGeometry>
        </mxCell>
        <mxCell id="mqZAyCv1sCGLmxm8XYX8-28" value="Доступное&amp;nbsp;&lt;div&gt;время аренды&lt;/div&gt;" style="ellipse;whiteSpace=wrap;html=1;align=center;" vertex="1" parent="1">
          <mxGeometry x="440" y="-40" width="100" height="40" as="geometry" />
        </mxCell>
        <mxCell id="mqZAyCv1sCGLmxm8XYX8-30" value="" style="endArrow=none;html=1;rounded=0;" edge="1" parent="1" source="mqZAyCv1sCGLmxm8XYX8-28" target="mqZAyCv1sCGLmxm8XYX8-7">
          <mxGeometry relative="1" as="geometry">
            <mxPoint x="420" y="-150" as="sourcePoint" />
            <mxPoint x="580" y="-150" as="targetPoint" />
          </mxGeometry>
        </mxCell>
        <mxCell id="mqZAyCv1sCGLmxm8XYX8-31" value="Адрес" style="ellipse;whiteSpace=wrap;html=1;align=center;" vertex="1" parent="1">
          <mxGeometry x="510" y="-80" width="100" height="40" as="geometry" />
        </mxCell>
        <mxCell id="mqZAyCv1sCGLmxm8XYX8-32" value="" style="endArrow=none;html=1;rounded=0;" edge="1" parent="1" source="mqZAyCv1sCGLmxm8XYX8-31" target="mqZAyCv1sCGLmxm8XYX8-7">
          <mxGeometry relative="1" as="geometry">
            <mxPoint x="570" y="-220" as="sourcePoint" />
            <mxPoint x="698" y="-20" as="targetPoint" />
          </mxGeometry>
        </mxCell>
        <mxCell id="mqZAyCv1sCGLmxm8XYX8-33" value="Кол-во мест" style="ellipse;whiteSpace=wrap;html=1;align=center;" vertex="1" parent="1">
          <mxGeometry x="570" y="-30" width="100" height="40" as="geometry" />
        </mxCell>
        <mxCell id="mqZAyCv1sCGLmxm8XYX8-34" value="" style="endArrow=none;html=1;rounded=0;" edge="1" parent="1" source="mqZAyCv1sCGLmxm8XYX8-33" target="mqZAyCv1sCGLmxm8XYX8-7">
          <mxGeometry relative="1" as="geometry">
            <mxPoint x="650" y="-195" as="sourcePoint" />
            <mxPoint x="778" y="5" as="targetPoint" />
          </mxGeometry>
        </mxCell>
        <mxCell id="mqZAyCv1sCGLmxm8XYX8-35" value="Время одного&lt;div&gt;матча&lt;/div&gt;" style="ellipse;whiteSpace=wrap;html=1;align=center;" vertex="1" parent="1">
          <mxGeometry x="780" y="-20" width="100" height="40" as="geometry" />
        </mxCell>
        <mxCell id="mqZAyCv1sCGLmxm8XYX8-36" value="" style="endArrow=none;html=1;rounded=0;" edge="1" parent="1" source="mqZAyCv1sCGLmxm8XYX8-35" target="mqZAyCv1sCGLmxm8XYX8-6">
          <mxGeometry relative="1" as="geometry">
            <mxPoint x="740" y="-190" as="sourcePoint" />
            <mxPoint x="868" y="10" as="targetPoint" />
          </mxGeometry>
        </mxCell>
        <mxCell id="mqZAyCv1sCGLmxm8XYX8-37" value="Играющие&lt;div&gt;команды&lt;/div&gt;" style="ellipse;whiteSpace=wrap;html=1;align=center;" vertex="1" parent="1">
          <mxGeometry x="890" y="-20" width="99" height="40" as="geometry" />
        </mxCell>
        <mxCell id="mqZAyCv1sCGLmxm8XYX8-38" value="" style="endArrow=none;html=1;rounded=0;" edge="1" parent="1" source="mqZAyCv1sCGLmxm8XYX8-37" target="mqZAyCv1sCGLmxm8XYX8-6">
          <mxGeometry relative="1" as="geometry">
            <mxPoint x="640" y="-195" as="sourcePoint" />
            <mxPoint x="768" y="5" as="targetPoint" />
          </mxGeometry>
        </mxCell>
        <mxCell id="mqZAyCv1sCGLmxm8XYX8-39" value="Список матчей" style="rounded=0;whiteSpace=wrap;html=1;" vertex="1" parent="1">
          <mxGeometry x="830" y="250" width="120" height="60" as="geometry" />
        </mxCell>
        <mxCell id="mqZAyCv1sCGLmxm8XYX8-40" value="Содержит" style="rhombus;whiteSpace=wrap;html=1;" vertex="1" parent="1">
          <mxGeometry x="825" y="140" width="130" height="80" as="geometry" />
        </mxCell>
        <mxCell id="mqZAyCv1sCGLmxm8XYX8-42" value="" style="edgeStyle=entityRelationEdgeStyle;fontSize=12;html=1;endArrow=ERmandOne;rounded=0;fontStyle=1" edge="1" parent="1" source="mqZAyCv1sCGLmxm8XYX8-40" target="mqZAyCv1sCGLmxm8XYX8-39">
          <mxGeometry width="100" height="100" relative="1" as="geometry">
            <mxPoint x="390" y="20" as="sourcePoint" />
            <mxPoint x="500" y="90" as="targetPoint" />
          </mxGeometry>
        </mxCell>
        <mxCell id="mqZAyCv1sCGLmxm8XYX8-46" value="" style="edgeStyle=entityRelationEdgeStyle;fontSize=12;html=1;endArrow=ERmany;rounded=0;entryX=1.01;entryY=0.852;entryDx=0;entryDy=0;entryPerimeter=0;" edge="1" parent="1" source="mqZAyCv1sCGLmxm8XYX8-40" target="mqZAyCv1sCGLmxm8XYX8-6">
          <mxGeometry width="100" height="100" relative="1" as="geometry">
            <mxPoint x="920" y="230" as="sourcePoint" />
            <mxPoint x="1020" y="130" as="targetPoint" />
          </mxGeometry>
        </mxCell>
        <mxCell id="mqZAyCv1sCGLmxm8XYX8-47" value="Имеет&amp;nbsp;&lt;div&gt;возможность стать&lt;/div&gt;" style="rhombus;whiteSpace=wrap;html=1;" vertex="1" parent="1">
          <mxGeometry x="820" y="340" width="130" height="80" as="geometry" />
        </mxCell>
        <mxCell id="mqZAyCv1sCGLmxm8XYX8-48" value="" style="edgeStyle=entityRelationEdgeStyle;fontSize=12;html=1;endArrow=ERoneToMany;rounded=0;entryX=0.012;entryY=0.836;entryDx=0;entryDy=0;entryPerimeter=0;" edge="1" parent="1" source="mqZAyCv1sCGLmxm8XYX8-47" target="mqZAyCv1sCGLmxm8XYX8-4">
          <mxGeometry width="100" height="100" relative="1" as="geometry">
            <mxPoint x="1160" y="350" as="sourcePoint" />
            <mxPoint x="1260" y="250" as="targetPoint" />
          </mxGeometry>
        </mxCell>
        <mxCell id="mqZAyCv1sCGLmxm8XYX8-49" value="" style="edgeStyle=entityRelationEdgeStyle;fontSize=12;html=1;endArrow=ERoneToMany;rounded=0;entryX=1;entryY=0.75;entryDx=0;entryDy=0;" edge="1" parent="1" source="mqZAyCv1sCGLmxm8XYX8-47" target="mqZAyCv1sCGLmxm8XYX8-3">
          <mxGeometry width="100" height="100" relative="1" as="geometry">
            <mxPoint x="970" y="400" as="sourcePoint" />
            <mxPoint x="1151" y="110" as="targetPoint" />
          </mxGeometry>
        </mxCell>
        <mxCell id="mqZAyCv1sCGLmxm8XYX8-50" style="edgeStyle=orthogonalEdgeStyle;rounded=0;orthogonalLoop=1;jettySize=auto;html=1;exitX=0.5;exitY=1;exitDx=0;exitDy=0;" edge="1" parent="1" source="mqZAyCv1sCGLmxm8XYX8-1" target="mqZAyCv1sCGLmxm8XYX8-1">
          <mxGeometry relative="1" as="geometry" />
        </mxCell>
        <mxCell id="mqZAyCv1sCGLmxm8XYX8-51" value="Организует" style="rhombus;whiteSpace=wrap;html=1;" vertex="1" parent="1">
          <mxGeometry x="630" y="140" width="130" height="80" as="geometry" />
        </mxCell>
        <mxCell id="mqZAyCv1sCGLmxm8XYX8-52" value="" style="edgeStyle=entityRelationEdgeStyle;fontSize=12;html=1;endArrow=ERmandOne;rounded=0;entryX=0;entryY=0.75;entryDx=0;entryDy=0;" edge="1" parent="1" source="mqZAyCv1sCGLmxm8XYX8-51" target="mqZAyCv1sCGLmxm8XYX8-6">
          <mxGeometry width="100" height="100" relative="1" as="geometry">
            <mxPoint x="765" y="220" as="sourcePoint" />
            <mxPoint x="680" y="210" as="targetPoint" />
            <Array as="points">
              <mxPoint x="744" y="330" />
              <mxPoint x="714" y="260" />
              <mxPoint x="754" y="280" />
              <mxPoint x="504" y="230" />
              <mxPoint x="834" y="240" />
            </Array>
          </mxGeometry>
        </mxCell>
        <mxCell id="mqZAyCv1sCGLmxm8XYX8-53" value="" style="edgeStyle=entityRelationEdgeStyle;fontSize=12;html=1;endArrow=ERmandOne;rounded=0;entryX=1;entryY=0.25;entryDx=0;entryDy=0;exitX=0.5;exitY=1;exitDx=0;exitDy=0;" edge="1" parent="1" source="mqZAyCv1sCGLmxm8XYX8-51" target="mqZAyCv1sCGLmxm8XYX8-2">
          <mxGeometry width="100" height="100" relative="1" as="geometry">
            <mxPoint x="770" y="180" as="sourcePoint" />
            <mxPoint x="840" y="105" as="targetPoint" />
            <Array as="points">
              <mxPoint x="754" y="340" />
              <mxPoint x="724" y="270" />
              <mxPoint x="764" y="290" />
              <mxPoint x="514" y="240" />
              <mxPoint x="844" y="250" />
            </Array>
          </mxGeometry>
        </mxCell>
      </root>
    </mxGraphModel>
  </diagram>
  <diagram id="ws1hwyYuvyVANOqEZKD6" name="Page-2">
    <mxGraphModel dx="2231" dy="710" grid="1" gridSize="10" guides="1" tooltips="1" connect="1" arrows="1" fold="1" page="1" pageScale="1" pageWidth="827" pageHeight="1169" math="0" shadow="0">
      <root>
        <mxCell id="0" />
        <mxCell id="1" parent="0" />
        <mxCell id="AI-oCV0VwSp5dgRPo5D4-1" value="Администратор&lt;div&gt;стадиона&lt;/div&gt;" style="shape=umlActor;verticalLabelPosition=bottom;verticalAlign=top;html=1;" vertex="1" parent="1">
          <mxGeometry x="320" y="30" width="30" height="60" as="geometry" />
        </mxCell>
        <mxCell id="AI-oCV0VwSp5dgRPo5D4-2" value="Капитан&amp;nbsp;&lt;div&gt;команды&lt;/div&gt;" style="shape=umlActor;verticalLabelPosition=bottom;verticalAlign=top;html=1;" vertex="1" parent="1">
          <mxGeometry x="-60" y="160" width="30" height="60" as="geometry" />
        </mxCell>
        <mxCell id="AI-oCV0VwSp5dgRPo5D4-3" value="Игрок" style="shape=umlActor;verticalLabelPosition=bottom;verticalAlign=top;html=1;" vertex="1" parent="1">
          <mxGeometry x="399" y="205" width="30" height="60" as="geometry" />
        </mxCell>
        <mxCell id="AI-oCV0VwSp5dgRPo5D4-5" value="Зритель" style="shape=umlActor;verticalLabelPosition=bottom;verticalAlign=top;html=1;" vertex="1" parent="1">
          <mxGeometry x="20" y="450" width="30" height="60" as="geometry" />
        </mxCell>
        <mxCell id="7Pu0dA-8rR62H0a0dRYz-1" value="Предоставляет стадион на некоторое время" style="ellipse;whiteSpace=wrap;html=1;" vertex="1" parent="1">
          <mxGeometry x="360" y="120" width="140" height="70" as="geometry" />
        </mxCell>
        <mxCell id="7Pu0dA-8rR62H0a0dRYz-2" value="Берет плату за аренду" style="ellipse;whiteSpace=wrap;html=1;" vertex="1" parent="1">
          <mxGeometry x="140" y="120" width="140" height="70" as="geometry" />
        </mxCell>
        <mxCell id="7Pu0dA-8rR62H0a0dRYz-3" value="Собирает команду" style="ellipse;whiteSpace=wrap;html=1;" vertex="1" parent="1">
          <mxGeometry x="-210" y="260" width="140" height="70" as="geometry" />
        </mxCell>
        <mxCell id="pjN3Wcyy6s3cxkmpRJkG-1" value="Система" style="shape=umlActor;verticalLabelPosition=bottom;verticalAlign=top;html=1;" vertex="1" parent="1">
          <mxGeometry x="220" y="560" width="30" height="60" as="geometry" />
        </mxCell>
        <mxCell id="pjN3Wcyy6s3cxkmpRJkG-3" value="Организует предстоящий матч" style="ellipse;whiteSpace=wrap;html=1;" vertex="1" parent="1">
          <mxGeometry x="-10" y="90" width="140" height="70" as="geometry" />
        </mxCell>
        <mxCell id="heGb7iEVqtb9PYLjCzCm-1" value="Общается с командой" style="ellipse;whiteSpace=wrap;html=1;" vertex="1" parent="1">
          <mxGeometry x="120" y="200" width="140" height="70" as="geometry" />
        </mxCell>
        <mxCell id="heGb7iEVqtb9PYLjCzCm-2" value="Запись в команду" style="ellipse;whiteSpace=wrap;html=1;" vertex="1" parent="1">
          <mxGeometry x="120" y="280" width="140" height="70" as="geometry" />
        </mxCell>
        <mxCell id="heGb7iEVqtb9PYLjCzCm-3" value="Участвует в матче" style="ellipse;whiteSpace=wrap;html=1;" vertex="1" parent="1">
          <mxGeometry x="120" y="360" width="140" height="70" as="geometry" />
        </mxCell>
        <mxCell id="heGb7iEVqtb9PYLjCzCm-4" value="Бронирует место&lt;div&gt;на матч&lt;/div&gt;" style="ellipse;whiteSpace=wrap;html=1;" vertex="1" parent="1">
          <mxGeometry x="-180" y="480" width="140" height="70" as="geometry" />
        </mxCell>
        <mxCell id="heGb7iEVqtb9PYLjCzCm-5" value="Уведомляет о&amp;nbsp;&lt;div&gt;новом матче&lt;/div&gt;" style="ellipse;whiteSpace=wrap;html=1;" vertex="1" parent="1">
          <mxGeometry x="120" y="460" width="140" height="70" as="geometry" />
        </mxCell>
        <mxCell id="heGb7iEVqtb9PYLjCzCm-6" value="Анализирует итоги матчей и игроков" style="ellipse;whiteSpace=wrap;html=1;" vertex="1" parent="1">
          <mxGeometry x="30" y="540" width="140" height="70" as="geometry" />
        </mxCell>
        <mxCell id="heGb7iEVqtb9PYLjCzCm-7" value="Выложить пост в соц. сеть о себе или матче" style="ellipse;whiteSpace=wrap;html=1;" vertex="1" parent="1">
          <mxGeometry x="300" y="330" width="140" height="70" as="geometry" />
        </mxCell>
        <mxCell id="heGb7iEVqtb9PYLjCzCm-8" value="Смотрит матч" style="ellipse;whiteSpace=wrap;html=1;" vertex="1" parent="1">
          <mxGeometry x="-240" y="410" width="140" height="70" as="geometry" />
        </mxCell>
        <mxCell id="heGb7iEVqtb9PYLjCzCm-9" value="Имеет возможность записаться в команду" style="ellipse;whiteSpace=wrap;html=1;" vertex="1" parent="1">
          <mxGeometry x="-110" y="360" width="140" height="70" as="geometry" />
        </mxCell>
        <mxCell id="heGb7iEVqtb9PYLjCzCm-10" value="Организует список предстоящих матчей" style="ellipse;whiteSpace=wrap;html=1;" vertex="1" parent="1">
          <mxGeometry x="274" y="480" width="140" height="70" as="geometry" />
        </mxCell>
        <mxCell id="heGb7iEVqtb9PYLjCzCm-16" value="" style="endArrow=none;html=1;rounded=0;" edge="1" parent="1" source="AI-oCV0VwSp5dgRPo5D4-1" target="7Pu0dA-8rR62H0a0dRYz-1">
          <mxGeometry width="50" height="50" relative="1" as="geometry">
            <mxPoint x="640" y="190" as="sourcePoint" />
            <mxPoint x="690" y="140" as="targetPoint" />
          </mxGeometry>
        </mxCell>
        <mxCell id="heGb7iEVqtb9PYLjCzCm-17" value="" style="endArrow=none;html=1;rounded=0;" edge="1" parent="1" source="AI-oCV0VwSp5dgRPo5D4-1" target="7Pu0dA-8rR62H0a0dRYz-2">
          <mxGeometry width="50" height="50" relative="1" as="geometry">
            <mxPoint x="650" y="200" as="sourcePoint" />
            <mxPoint x="700" y="150" as="targetPoint" />
          </mxGeometry>
        </mxCell>
        <mxCell id="heGb7iEVqtb9PYLjCzCm-18" value="" style="endArrow=none;html=1;rounded=0;" edge="1" parent="1" source="AI-oCV0VwSp5dgRPo5D4-3" target="heGb7iEVqtb9PYLjCzCm-1">
          <mxGeometry width="50" height="50" relative="1" as="geometry">
            <mxPoint x="610" y="300" as="sourcePoint" />
            <mxPoint x="660" y="250" as="targetPoint" />
          </mxGeometry>
        </mxCell>
        <mxCell id="heGb7iEVqtb9PYLjCzCm-19" value="" style="endArrow=none;html=1;rounded=0;" edge="1" parent="1" source="heGb7iEVqtb9PYLjCzCm-10" target="pjN3Wcyy6s3cxkmpRJkG-1">
          <mxGeometry width="50" height="50" relative="1" as="geometry">
            <mxPoint x="310" y="255" as="sourcePoint" />
            <mxPoint x="360" y="205" as="targetPoint" />
          </mxGeometry>
        </mxCell>
        <mxCell id="heGb7iEVqtb9PYLjCzCm-20" value="" style="endArrow=none;html=1;rounded=0;" edge="1" parent="1" source="pjN3Wcyy6s3cxkmpRJkG-1" target="heGb7iEVqtb9PYLjCzCm-5">
          <mxGeometry width="50" height="50" relative="1" as="geometry">
            <mxPoint x="320" y="265" as="sourcePoint" />
            <mxPoint x="370" y="215" as="targetPoint" />
          </mxGeometry>
        </mxCell>
        <mxCell id="heGb7iEVqtb9PYLjCzCm-21" value="" style="endArrow=none;html=1;rounded=0;" edge="1" parent="1" source="heGb7iEVqtb9PYLjCzCm-6" target="pjN3Wcyy6s3cxkmpRJkG-1">
          <mxGeometry width="50" height="50" relative="1" as="geometry">
            <mxPoint x="330" y="275" as="sourcePoint" />
            <mxPoint x="380" y="225" as="targetPoint" />
          </mxGeometry>
        </mxCell>
        <mxCell id="heGb7iEVqtb9PYLjCzCm-28" value="" style="endArrow=none;html=1;rounded=0;" edge="1" parent="1" source="AI-oCV0VwSp5dgRPo5D4-5" target="heGb7iEVqtb9PYLjCzCm-4">
          <mxGeometry width="50" height="50" relative="1" as="geometry">
            <mxPoint x="610" y="200" as="sourcePoint" />
            <mxPoint x="660" y="150" as="targetPoint" />
          </mxGeometry>
        </mxCell>
        <mxCell id="heGb7iEVqtb9PYLjCzCm-29" value="" style="endArrow=none;html=1;rounded=0;" edge="1" parent="1" source="AI-oCV0VwSp5dgRPo5D4-5" target="heGb7iEVqtb9PYLjCzCm-8">
          <mxGeometry width="50" height="50" relative="1" as="geometry">
            <mxPoint x="620" y="210" as="sourcePoint" />
            <mxPoint x="670" y="160" as="targetPoint" />
          </mxGeometry>
        </mxCell>
        <mxCell id="heGb7iEVqtb9PYLjCzCm-30" value="" style="endArrow=none;html=1;rounded=0;" edge="1" parent="1" source="AI-oCV0VwSp5dgRPo5D4-5" target="heGb7iEVqtb9PYLjCzCm-9">
          <mxGeometry width="50" height="50" relative="1" as="geometry">
            <mxPoint x="630" y="220" as="sourcePoint" />
            <mxPoint x="680" y="170" as="targetPoint" />
          </mxGeometry>
        </mxCell>
        <mxCell id="heGb7iEVqtb9PYLjCzCm-31" value="" style="endArrow=none;html=1;rounded=0;" edge="1" parent="1" source="7Pu0dA-8rR62H0a0dRYz-3" target="AI-oCV0VwSp5dgRPo5D4-2">
          <mxGeometry width="50" height="50" relative="1" as="geometry">
            <mxPoint x="810" y="430" as="sourcePoint" />
            <mxPoint x="860" y="380" as="targetPoint" />
          </mxGeometry>
        </mxCell>
        <mxCell id="heGb7iEVqtb9PYLjCzCm-32" value="" style="endArrow=none;html=1;rounded=0;" edge="1" parent="1" source="7Pu0dA-8rR62H0a0dRYz-2" target="AI-oCV0VwSp5dgRPo5D4-2">
          <mxGeometry width="50" height="50" relative="1" as="geometry">
            <mxPoint x="9.885648010349541" y="98.52391998275107" as="sourcePoint" />
            <mxPoint x="870" y="390" as="targetPoint" />
          </mxGeometry>
        </mxCell>
        <mxCell id="heGb7iEVqtb9PYLjCzCm-33" value="" style="endArrow=none;html=1;rounded=0;" edge="1" parent="1" source="pjN3Wcyy6s3cxkmpRJkG-3" target="AI-oCV0VwSp5dgRPo5D4-2">
          <mxGeometry width="50" height="50" relative="1" as="geometry">
            <mxPoint x="830" y="450" as="sourcePoint" />
            <mxPoint x="880" y="400" as="targetPoint" />
          </mxGeometry>
        </mxCell>
        <mxCell id="heGb7iEVqtb9PYLjCzCm-34" value="" style="endArrow=none;html=1;rounded=0;" edge="1" parent="1" source="AI-oCV0VwSp5dgRPo5D4-3" target="heGb7iEVqtb9PYLjCzCm-7">
          <mxGeometry width="50" height="50" relative="1" as="geometry">
            <mxPoint x="805" y="585" as="sourcePoint" />
            <mxPoint x="855" y="535" as="targetPoint" />
          </mxGeometry>
        </mxCell>
        <mxCell id="heGb7iEVqtb9PYLjCzCm-35" value="" style="endArrow=none;html=1;rounded=0;" edge="1" parent="1" source="AI-oCV0VwSp5dgRPo5D4-3" target="heGb7iEVqtb9PYLjCzCm-3">
          <mxGeometry width="50" height="50" relative="1" as="geometry">
            <mxPoint x="750" y="440" as="sourcePoint" />
            <mxPoint x="800" y="390" as="targetPoint" />
          </mxGeometry>
        </mxCell>
        <mxCell id="heGb7iEVqtb9PYLjCzCm-36" value="" style="endArrow=none;html=1;rounded=0;" edge="1" parent="1" source="heGb7iEVqtb9PYLjCzCm-2" target="AI-oCV0VwSp5dgRPo5D4-3">
          <mxGeometry width="50" height="50" relative="1" as="geometry">
            <mxPoint x="760" y="450" as="sourcePoint" />
            <mxPoint x="810" y="400" as="targetPoint" />
          </mxGeometry>
        </mxCell>
        <mxCell id="heGb7iEVqtb9PYLjCzCm-39" value="" style="endArrow=none;html=1;rounded=0;" edge="1" parent="1" source="heGb7iEVqtb9PYLjCzCm-1" target="AI-oCV0VwSp5dgRPo5D4-2">
          <mxGeometry width="50" height="50" relative="1" as="geometry">
            <mxPoint x="770" y="460" as="sourcePoint" />
            <mxPoint x="820" y="410" as="targetPoint" />
          </mxGeometry>
        </mxCell>
        <mxCell id="heGb7iEVqtb9PYLjCzCm-41" value="" style="endArrow=none;html=1;rounded=0;" edge="1" parent="1" source="AI-oCV0VwSp5dgRPo5D4-2" target="heGb7iEVqtb9PYLjCzCm-2">
          <mxGeometry width="50" height="50" relative="1" as="geometry">
            <mxPoint x="430" y="270" as="sourcePoint" />
            <mxPoint x="480" y="220" as="targetPoint" />
          </mxGeometry>
        </mxCell>
        <mxCell id="heGb7iEVqtb9PYLjCzCm-42" value="" style="endArrow=none;html=1;rounded=0;" edge="1" parent="1" source="AI-oCV0VwSp5dgRPo5D4-2" target="heGb7iEVqtb9PYLjCzCm-3">
          <mxGeometry width="50" height="50" relative="1" as="geometry">
            <mxPoint x="440" y="280" as="sourcePoint" />
            <mxPoint x="490" y="230" as="targetPoint" />
          </mxGeometry>
        </mxCell>
        <mxCell id="heGb7iEVqtb9PYLjCzCm-43" value="" style="endArrow=none;html=1;rounded=0;" edge="1" parent="1" source="7Pu0dA-8rR62H0a0dRYz-3" target="heGb7iEVqtb9PYLjCzCm-9">
          <mxGeometry width="50" height="50" relative="1" as="geometry">
            <mxPoint x="450" y="290" as="sourcePoint" />
            <mxPoint x="500" y="240" as="targetPoint" />
          </mxGeometry>
        </mxCell>
        <mxCell id="heGb7iEVqtb9PYLjCzCm-44" value="" style="endArrow=none;html=1;rounded=0;" edge="1" parent="1" source="heGb7iEVqtb9PYLjCzCm-5" target="heGb7iEVqtb9PYLjCzCm-3">
          <mxGeometry width="50" height="50" relative="1" as="geometry">
            <mxPoint x="460" y="300" as="sourcePoint" />
            <mxPoint x="510" y="250" as="targetPoint" />
          </mxGeometry>
        </mxCell>
      </root>
    </mxGraphModel>
  </diagram>
</mxfile>
